PathFileType	4	(X/Y/Z)	C:/Users/opensim2020/Desktop/walking_exp_matlab/subject01_walking14_straight_03.trc																																																																																																																												
DataRate	CameraRate	NumFrames	NumMarkers	Units	OrigDataRate	OrigDataStartFrame	OrigNumFrames																																																																																																																								
100	100	4	42	mm	100	1688	121																																																																																																																								
Frame#	Time	LFHD			RFHD			LBHD			RBHD			C7			T10			CLAV			STRN			RBAK			LSHO			LUPA			LELB			LFRM			LWRA			LWRB			LFIN			RSHO			RUPA			RELB			RFRM			RWRA			RWRB			RFIN			LASI			RASI			LPSI			RPSI			LTHI			LKNE			LTIB			LANK			LHEE			LTOE			RTHI			RKNE			RTIB			RANK			RHEE			RTOE			*39			*40			*41		
		X1	Y1	Z1	X2	Y2	Z2	X3	Y3	Z3	X4	Y4	Z4	X5	Y5	Z5	X6	Y6	Z6	X7	Y7	Z7	X8	Y8	Z8	X9	Y9	Z9	X10	Y10	Z10	X11	Y11	Z11	X12	Y12	Z12	X13	Y13	Z13	X14	Y14	Z14	X15	Y15	Z15	X16	Y16	Z16	X17	Y17	Z17	X18	Y18	Z18	X19	Y19	Z19	X20	Y20	Z20	X21	Y21	Z21	X22	Y22	Z22	X23	Y23	Z23	X24	Y24	Z24	X25	Y25	Z25	X26	Y26	Z26	X27	Y27	Z27	X28	Y28	Z28	X29	Y29	Z29	X30	Y30	Z30	X31	Y31	Z31	X32	Y32	Z32	X33	Y33	Z33	X34	Y34	Z34	X35	Y35	Z35	X36	Y36	Z36	X37	Y37	Z37	X38	Y38	Z38	X39	Y39	Z39	X40	Y40	Z40	X41	Y41	Z41	X42	Y42	Z42
																																																																																																																															
91	0.9	454.1449	1650.91467	1364.82117	507.62854	1661.7019	1463.66956	347.91498	1613.77502	1417.8302	402.11252	1623.70032	1524.06152	311.68466	1426.89221	1453.61926	260.58618	1133.6781	1469.9906	454.32092	1349.54639	1445.29773	485.94907	1193.89941	1443.09082	250.23265	1238.65979	1533.09875	385.45822	1384.65417	1290.47766	354.88547	1205.80139	1200.82935	353.30396	1052.20886	1188.20862	453.2153	990.00952	1166.70288	588.388	965.02039	1180.13733	552.74268	919.95972	1165.36511	632.7923	904.55432	1147.09973	397.66907	1394.89111	1597.90955	295.2547	1216.4259	1700.20618	277.57361	1096.17126	1715.08435	266.35361	981.64331	1757.42053	301.91721	842.091	1752.97058	262.32495	862.52606	1790.26965	270.43253	775.99213	1799.9082	419.56564	927.56372	1348.20166	447.36008	931.91339	1564.12512	242.4539	935.80566	1428.49805	262.74417	933.93896	1570.72217	326.806	597.98175	1308.04761	287.19919	466.40219	1326.09753	190.8205	301.78583	1328.62976	110.01514	98.87247	1384.46326	61.54294	82.62507	1439.33691	241.73172	33.88356	1368.37976	488.07401	608.45557	1647.6405	564.7384	472.98416	1619.63098	572.20538	301.00995	1645.9469	623.20142	93.67731	1615.58325	588.56689	36.76102	1571.08887	766.85437	99.66665	1602.53101	489.75485	1694.39355	1444.32361	1973.09058	1023.50269	-3101.97461	2012.5116	1022.146	-3140.86572
92	0.91	466.8269	1650.03113	1365.71045	520.5755	1660.72339	1464.54614	360.71951	1612.86743	1418.96167	415.16595	1622.66455	1525.07019	324.42151	1425.80261	1454.60083	274.06686	1132.46838	1470.77539	467.1832	1348.70544	1445.99695	499.07813	1193.13232	1443.50366	263.49261	1237.32813	1533.92285	398.02554	1384.07312	1291.32715	367.72556	1205.49072	1201.14001	366.82275	1052.19067	1187.49866	468.13858	992.23389	1165.87683	603.6535	970.20544	1179.59839	569.17139	924.48126	1164.4895	649.5741	911.07019	1146.15137	410.53699	1393.8717	1598.70667	307.28314	1215.8103	1700.54077	289.08643	1095.71704	1715.60779	276.68121	981.52448	1758.14807	311.11624	841.61682	1754.28748	271.38281	862.49225	1791.28577	278.55423	775.7677	1801.04431	432.74707	926.82172	1347.86072	461.82581	930.79218	1563.61536	256.26648	935.16376	1429.47021	277.58289	933.08051	1571.58887	336.7832	597.95471	1307.51965	295.75543	466.70914	1325.57556	196.53488	303.67944	1328.05615	111.68552	102.339	1383.89026	63.18567	87.37642	1438.76355	241.94409	33.88786	1368.24646	498.70303	606.27936	1649.08569	577.73676	472.51419	1619.02698	590.59277	300.95203	1645.54407	646.7793	94.74063	1614.65833	613.52393	37.14146	1570.41113	790.14276	104.61429	1600.6875	502.64554	1693.45422	1445.26782	1973.20544	1024.00427	-3101.99341	2012.48083	1022.08057	-3140.7998
93	0.92	479.41031	1649.20483	1366.8208	533.46521	1659.74487	1465.45447	373.43893	1611.97034	1420.30847	428.21307	1621.62744	1526.29968	337.31772	1424.59875	1455.64575	287.56421	1131.18103	1471.57751	480.13016	1347.91199	1446.80103	512.29559	1192.37769	1443.94922	276.74634	1235.92603	1534.82837	410.58331	1383.44202	1292.23254	380.60764	1205.19214	1201.63977	380.32004	1052.1427	1186.85083	482.65344	994.19971	1165.21118	618.5152	974.8291	1179.15674	585.1347	928.51617	1163.73145	665.67023	917.01709	1145.31909	423.40482	1392.77258	1599.57629	319.4429	1214.99915	1701.01697	300.85641	1095.10059	1716.19446	287.41193	981.15393	1758.8988	320.82993	840.9975	1755.59119	280.95737	862.24835	1792.37305	287.30444	775.28851	1802.18542	446.12415	926.06311	1347.70898	476.43698	929.57367	1563.15747	270.27737	934.44708	1430.46277	291.94836	932.63171	1572.83679	347.42661	597.74097	1307.06653	304.79446	466.8251	1325.12512	202.62708	305.6633	1327.42358	113.95158	105.88993	1382.97131	65.02068	92.18295	1437.60669	241.87543	34.19785	1368.19568	511.26419	604.94165	1649.42346	590.93414	472.00037	1618.66968	607.16125	300.4039	1644.71399	666.94263	95.3168	1613.35889	633.78052	36.71113	1568.46643	810.14655	107.25532	1598.82764	515.49316	1692.4873	1446.23523	1973.18835	1023.5871	-3101.96753	2012.48315	1022.09503	-3140.79053
94	0.93	491.9093	1648.31372	1367.95068	546.35205	1658.77356	1466.50134	386.15723	1611.09338	1421.77502	441.28351	1620.5625	1527.59302	350.03015	1423.5144	1456.80664	301.24875	1129.76868	1472.3866	493.11566	1347.1123	1447.66272	525.62573	1191.62683	1444.47412	290.1749	1234.40125	1535.84143	423.12103	1382.72351	1293.26318	393.38632	1204.84863	1202.21582	393.52411	1052.08813	1186.31995	496.90408	995.92126	1164.57654	632.92554	978.90222	1178.84619	600.44159	932.09412	1163.01074	681.2019	922.37714	1144.47192	436.34958	1391.6217	1600.57446	331.79193	1214.05701	1701.66797	312.90146	1094.35876	1716.86243	298.55667	980.65027	1759.74121	331.08871	840.25415	1756.9884	291.27237	861.81433	1793.36536	296.72678	774.6911	1803.36255	459.69574	925.30573	1347.61621	491.05725	928.2699	1562.70605	284.38144	933.70239	1431.61389	306.55194	931.97089	1574.09668	358.68338	597.33612	1306.68286	314.57626	466.87381	1324.61353	209.19341	307.65894	1326.69031	116.50391	109.77882	1382.05408	67.16558	97.25689	1436.36572	242.20511	34.24619	1368.06848	525.87024	604.42731	1648.50623	604.25647	471.08701	1618.1626	622.20593	299.56158	1643.73877	683.40784	94.63905	1611.7323	651.67657	35.83552	1566.95093	826.8941	107.74189	1596.68311	528.30737	1691.55176	1447.39465	1973.19849	1023.41132	-3101.96265	2012.47278	1022.01349	-3140.84058
